<svg xmlns="http://www.w3.org/2000/svg" version="1.0" width="1024.000000pt" height="1024.000000pt" viewBox="0 0 1024.000000 1024.000000" preserveAspectRatio="xMidYMid meet">

<g transform="translate(0.000000,1024.000000) scale(0.100000,-0.100000)" fill="#ffffff" stroke="#ffffff">
<path d="M0 5120 l0 -5120 5120 0 5120 0 0 5120 0 5120 -5120 0 -5120 0 0 -5120z m5945 3699 c615 -38 1049 -135 1405 -314 183 -92 313 -201 387 -326 56 -95 63 -143 63 -440 0 -230 -3 -276 -19 -341 -65 -253 -268 -457 -606 -610 -233 -105 -535 -177 -980 -233 -106 -14 -465 -35 -590 -35 -451 0 -1016 65 -1282 148 -149 47 -260 138 -343 282 -84 146 -143 202 -258 241 -50 17 -88 19 -421 19 -227 0 -381 4 -404 11 -21 6 -56 28 -77 49 -77 77 -85 200 -18 276 54 61 76 68 246 72 l153 4 -2 237 -2 237 34 69 c44 87 118 168 216 234 463 313 1479 484 2498 420z m-3688 -594 c65 -19 97 -45 133 -109 80 -138 -11 -313 -169 -324 -108 -8 -182 33 -227 123 -23 49 -26 63 -20 117 3 34 14 75 24 91 26 44 85 88 139 103 62 16 61 17 120 -1z m1203 -1491 c43 -13 66 -29 112 -76 65 -67 118 -164 118 -216 0 -25 -9 -43 -34 -68 l-34 -34 -768 0 -769 0 -40 23 c-113 64 -138 243 -46 331 58 56 51 55 757 56 568 0 657 -2 704 -16z m-1786 -28 c38 -16 75 -69 83 -121 8 -48 -21 -119 -59 -146 -42 -30 -126 -32 -165 -3 -48 35 -73 82 -73 134 0 110 110 180 214 136z m5945 -140 c149 -187 187 -320 179 -613 -4 -135 -9 -170 -31 -238 -68 -207 -238 -387 -489 -516 -278 -142 -684 -246 -1158 -294 -559 -58 -1360 -5 -1735 115 -144 47 -220 103 -310 230 -62 87 -98 125 -155 165 -79 55 -80 55 -898 55 -823 0 -792 -2 -856 58 -114 107 -70 290 79 331 55 15 1424 15 1494 0 28 -6 88 -33 133 -61 167 -100 173 -103 273 -103 81 0 95 3 145 30 71 39 107 91 121 175 33 186 112 222 399 181 334 -47 433 -54 780 -54 279 0 365 4 515 22 350 42 606 94 803 162 108 38 274 120 367 181 80 53 192 158 231 217 33 50 42 46 113 -43z m-5772 -756 c39 -23 73 -86 73 -135 0 -47 -31 -107 -66 -125 -15 -8 -53 -15 -85 -15 -67 0 -103 21 -132 76 -23 44 -19 129 9 160 53 60 139 77 201 39z m1784 -805 c78 -28 191 -165 213 -258 9 -37 -19 -94 -55 -112 -43 -23 -853 -22 -907 0 -173 73 -163 321 16 375 15 5 176 9 358 9 275 1 339 -2 375 -14z m3988 -65 c99 -118 143 -214 166 -353 34 -207 14 -436 -48 -578 -66 -148 -230 -311 -417 -414 -266 -146 -580 -241 -995 -299 -294 -41 -454 -49 -824 -43 -179 3 -346 8 -371 11 -522 62 -712 104 -840 187 -34 22 -95 71 -135 109 -82 78 -158 129 -230 156 -46 17 -93 19 -542 24 l-491 5 -43 30 c-82 58 -112 169 -70 260 22 48 43 68 96 92 35 15 86 18 441 21 460 4 474 3 599 -73 98 -60 143 -75 225 -75 114 0 201 44 241 121 11 22 26 76 34 119 8 44 19 90 26 102 25 49 74 89 128 105 58 16 88 15 286 -13 279 -40 454 -51 770 -49 734 6 1291 131 1650 370 81 54 206 175 240 233 23 39 37 33 104 -48z m-5356 -321 c87 -24 151 -115 151 -214 0 -169 -165 -273 -320 -201 -110 51 -156 189 -105 308 38 89 163 138 274 107z m-552 -90 c57 -41 80 -140 46 -206 -22 -43 -75 -73 -126 -73 -106 0 -182 100 -152 199 28 94 152 137 232 80z m2104 -1798 c97 -55 100 -196 6 -249 -88 -50 -189 -9 -220 90 -24 73 16 145 96 173 42 15 73 11 118 -14z m-1269 -16 c55 -16 101 -58 131 -120 11 -22 66 -166 121 -320 55 -154 160 -443 232 -642 72 -199 133 -376 136 -392 30 -150 -153 -241 -254 -127 -20 23 -43 74 -68 150 l-38 116 -322 0 -321 0 -39 -117 c-45 -134 -75 -174 -143 -193 -82 -22 -158 26 -181 112 -12 44 2 90 160 528 43 118 132 364 198 545 66 182 127 345 135 362 32 61 109 107 188 112 8 1 38 -6 65 -14z m4348 -24 c347 -92 563 -414 555 -826 -8 -384 -214 -671 -543 -755 -109 -28 -491 -32 -531 -6 -56 37 -55 23 -55 815 0 818 -6 757 75 787 63 23 393 13 499 -15z m1216 3 c163 -37 293 -134 358 -271 36 -75 37 -82 37 -188 0 -98 -3 -116 -26 -166 -15 -31 -47 -78 -73 -104 -25 -27 -46 -51 -46 -54 0 -3 25 -28 55 -54 175 -154 176 -431 2 -607 -63 -63 -114 -94 -210 -127 -67 -24 -92 -26 -332 -33 -290 -9 -309 -7 -345 52 -20 32 -20 48 -20 770 l0 737 23 27 c14 16 39 30 63 34 60 13 439 0 514 -16z m-2793 -404 c45 -20 70 -51 203 -248 41 -62 80 -112 85 -111 6 0 42 48 80 107 154 234 159 240 220 257 42 13 62 14 94 5 45 -12 86 -55 96 -100 10 -44 -15 -88 -170 -305 -74 -104 -135 -194 -135 -200 0 -6 65 -105 144 -219 80 -113 150 -223 157 -243 36 -109 -84 -204 -196 -154 -36 16 -57 41 -161 191 -66 96 -124 175 -130 177 -6 2 -64 -73 -129 -167 -65 -94 -128 -178 -140 -186 -88 -57 -198 -23 -223 69 -14 52 2 103 54 173 39 51 81 110 227 317 23 32 27 45 19 61 -5 12 -63 95 -127 186 -156 218 -175 249 -175 282 0 38 25 84 52 99 60 32 100 35 155 9z m-1479 -27 c15 -11 35 -35 45 -54 16 -32 17 -76 14 -649 -2 -451 -6 -625 -15 -651 -19 -56 -84 -146 -131 -180 -122 -90 -301 -91 -369 -1 -22 29 -27 46 -27 93 0 50 4 62 29 88 28 29 44 34 161 56 50 10 50 8 55 645 5 575 6 596 25 622 42 58 155 74 213 31z m774 9 c127 -36 208 -107 270 -238 l33 -69 3 -407 3 -407 -35 -38 c-33 -37 -37 -38 -101 -38 -65 0 -67 1 -106 42 l-39 42 -38 -25 c-72 -50 -152 -67 -252 -53 -124 18 -215 84 -277 201 -25 48 -28 63 -28 153 0 117 20 171 89 238 79 76 156 96 379 97 l117 0 0 60 c0 104 -33 151 -117 171 -48 11 -95 -2 -158 -42 -56 -36 -137 -50 -174 -29 -33 17 -61 70 -61 113 0 168 265 291 492 229z"/>
<path d="M5115 8316 c-539 -51 -865 -137 -997 -264 -101 -97 7 -212 283 -300 52 -17 134 -39 180 -48 85 -18 85 -18 250 9 269 44 506 60 794 53 138 -3 273 -8 300 -11 87 -9 266 -35 364 -54 86 -17 100 -17 160 -4 330 73 521 180 521 291 0 22 -10 40 -39 67 -121 115 -383 194 -811 245 -226 27 -791 36 -1005 16z"/>
<path d="M2382 1997 c-56 -161 -105 -307 -108 -325 l-7 -33 217 2 c162 1 216 5 216 14 0 6 -33 107 -74 224 -41 116 -89 257 -106 311 -17 55 -32 100 -34 100 -2 0 -49 -132 -104 -293z"/>
<path d="M6620 1901 l0 -531 83 0 c211 0 347 100 425 314 24 64 26 85 26 206 -1 117 -4 145 -27 215 -69 212 -198 313 -409 323 l-98 4 0 -531z"/>
<path d="M7810 2234 l0 -196 138 4 c129 3 140 5 185 31 59 35 91 91 91 162 0 63 -23 107 -75 144 -51 38 -115 51 -239 51 l-100 0 0 -196z"/>
<path d="M7810 1566 l0 -196 43 -2 c230 -8 332 24 378 120 44 89 7 192 -85 240 -47 24 -62 27 -193 30 l-143 4 0 -196z"/>
<path d="M4405 1535 c-49 -17 -74 -50 -75 -93 0 -43 43 -88 95 -98 46 -8 126 9 172 37 33 20 33 22 33 95 l0 74 -92 0 c-54 -1 -110 -7 -133 -15z"/>
</g>
</svg>