<?xml version="1.0" standalone="no"?>
<!DOCTYPE svg PUBLIC "-//W3C//DTD SVG 20010904//EN"
 "http://www.w3.org/TR/2001/REC-SVG-20010904/DTD/svg10.dtd">
<svg version="1.0" xmlns="http://www.w3.org/2000/svg"
 width="1024.000000pt" height="1024.000000pt" viewBox="0 0 1024.000000 1024.000000"
 preserveAspectRatio="xMidYMid meet">

<g transform="translate(0.000000,1024.000000) scale(0.100000,-0.100000)"
fill="#05253d" stroke="none">
<path d="M6635 8624 c-85 -67 -220 -135 -337 -168 -143 -41 -239 -49 -483 -42
-313 9 -524 -12 -745 -77 -470 -137 -900 -489 -1121 -917 l-40 -78 -57 -6
c-203 -24 -399 -144 -531 -325 -45 -62 -106 -190 -132 -276 -29 -96 -37 -311
-16 -411 44 -208 177 -406 347 -519 131 -87 255 -127 414 -131 l100 -4 44 -82
c83 -153 240 -362 321 -428 17 -14 31 -29 31 -35 0 -5 -35 -44 -78 -85 -81
-79 -148 -153 -155 -173 -6 -17 -10 -12 -57 93 -140 310 -199 424 -257 495
-71 86 -169 175 -235 212 -209 119 -416 128 -624 27 -133 -65 -273 -217 -328
-356 -170 -431 58 -874 480 -932 121 -17 307 47 364 126 77 106 23 251 -94
250 -17 0 -62 -17 -101 -37 -64 -34 -75 -37 -132 -32 -178 14 -306 207 -272
411 15 90 44 148 107 211 153 155 387 149 555 -13 81 -78 173 -250 290 -542
14 -36 46 -113 71 -173 l44 -107 -14 -58 c-7 -31 -13 -95 -14 -142 l0 -86 -67
-17 c-242 -63 -457 -203 -514 -335 -18 -41 -19 -80 -19 -675 0 -348 -4 -627
-8 -622 -4 6 -25 23 -47 40 -105 77 -392 376 -380 396 4 5 1 8 -6 7 -16 -4
-196 241 -277 375 -190 317 -327 704 -384 1087 -20 134 -23 194 -23 440 1 245
4 305 23 425 71 452 212 828 436 1170 68 104 213 286 240 302 7 5 30 46 51 93
151 330 393 564 677 655 67 21 68 22 141 121 70 95 189 216 271 276 39 28 62
37 51 18 -3 -6 1 -7 9 -4 22 9 20 21 -8 39 -30 20 -63 13 -227 -51 -464 -178
-922 -496 -1242 -861 -571 -651 -860 -1441 -834 -2278 11 -363 59 -633 174
-975 248 -745 756 -1376 1424 -1771 911 -539 2108 -616 3099 -199 591 248
1068 640 1426 1170 297 439 466 883 550 1440 35 235 29 702 -12 940 -103 598
-333 1100 -727 1590 -90 111 -359 376 -467 459 -170 131 -360 250 -420 264
-38 9 -86 -23 -94 -63 -9 -46 -8 -102 2 -96 8 5 31 -13 183 -146 142 -124 298
-328 372 -487 26 -56 62 -111 102 -156 34 -38 77 -92 96 -119 19 -26 43 -61
54 -75 87 -118 217 -354 298 -541 44 -101 124 -353 153 -480 109 -483 96
-1019 -36 -1481 -107 -375 -264 -682 -517 -1010 -94 -122 -379 -416 -478 -492
l-60 -47 -5 643 -5 642 -30 53 c-75 136 -250 242 -518 313 l-127 34 6 95 c3
52 7 101 10 108 2 6 18 12 36 12 18 0 69 9 113 19 352 85 623 356 690 690 30
146 10 348 -48 483 -15 36 -15 39 9 88 32 67 70 183 91 283 14 63 18 125 17
267 -1 200 -15 293 -69 453 -101 302 -324 612 -601 837 l-92 74 69 75 c95 105
143 177 194 284 56 118 86 236 92 363 6 110 -10 251 -33 296 -21 41 -49 35
-129 -28z m-2570 -1569 c99 -26 165 -64 246 -145 84 -83 127 -160 154 -271 32
-137 9 -312 -57 -428 -47 -83 -150 -182 -229 -219 -137 -65 -300 -65 -438 -1
-92 44 -203 158 -253 259 -113 231 -75 493 97 665 131 131 311 183 480 140z
m1715 -280 c79 -21 211 -81 276 -126 27 -18 83 -66 125 -106 42 -40 78 -73 81
-73 3 0 22 25 43 55 48 71 131 146 191 176 30 14 72 24 119 27 63 4 80 1 129
-21 150 -69 230 -233 228 -467 -1 -185 -50 -334 -158 -479 l-48 -64 18 -31
c78 -133 106 -225 106 -353 0 -103 -17 -179 -59 -261 -74 -142 -194 -246 -355
-307 -418 -157 -949 -40 -1192 263 -87 107 -157 285 -167 422 -4 53 -7 57 -83
136 -138 141 -207 308 -207 499 1 118 21 210 67 308 104 224 311 378 561 418
74 12 250 3 325 -16z m-112 -2354 c59 -30 119 -104 139 -170 43 -147 -53 -334
-198 -387 -62 -23 -146 -21 -195 4 -173 88 -207 337 -65 485 86 91 218 119
319 68z m689 -512 c140 -44 234 -91 277 -139 41 -45 44 -62 17 -106 -33 -54
-216 -135 -430 -188 -117 -30 -271 -59 -277 -53 -3 3 5 61 17 131 19 107 25
126 41 126 35 0 109 43 144 83 21 26 43 67 55 109 16 53 25 68 40 68 10 0 63
-14 116 -31z m-2327 5 c0 -29 50 -121 91 -167 49 -56 143 -104 220 -113 100
-11 216 27 284 93 20 19 38 34 39 32 2 -2 17 -81 34 -175 17 -94 34 -178 38
-187 8 -21 -7 -22 -157 -2 -342 45 -628 118 -788 200 -78 41 -92 51 -115 87
-32 49 -2 96 99 155 67 40 198 92 233 93 13 0 22 -6 22 -16z m1484 -379 c10
-86 15 -159 11 -163 -3 -4 -89 -9 -190 -10 l-184 -4 5 94 c3 51 7 121 10 156
l6 62 96 1 c53 0 120 4 147 9 28 4 57 8 65 9 12 1 19 -29 34 -154z m-1797
-250 c63 -27 333 -103 453 -129 582 -123 1246 -136 1846 -36 191 32 500 113
601 156 17 8 36 14 41 14 17 0 20 -209 4 -240 -35 -68 -141 -132 -311 -189
-319 -108 -697 -161 -1145 -161 -384 0 -728 38 -1021 111 -215 55 -420 144
-479 210 l-36 39 0 120 c0 66 2 120 5 120 3 0 22 -7 42 -15z m146 -699 c64
-20 179 -52 256 -71 763 -189 1709 -159 2396 75 66 23 128 44 137 47 14 4 17
-6 20 -80 5 -134 -2 -165 -49 -206 -75 -67 -314 -168 -523 -221 -419 -107
-971 -131 -1465 -64 -418 56 -807 188 -934 315 l-31 31 0 124 0 124 38 -19
c20 -10 90 -35 155 -55z"/>
<path d="M3816 6920 c-43 -13 -66 -39 -66 -75 0 -40 16 -55 60 -55 20 0 61 -7
93 -15 138 -36 229 -140 243 -279 6 -55 11 -70 32 -86 34 -27 65 -25 102 7
l32 26 -4 87 c-3 76 -8 95 -41 162 -58 118 -159 200 -279 228 -52 11 -132 12
-172 0z"/>
<path d="M5611 6209 c-198 -99 -194 -375 6 -469 57 -26 156 -25 215 4 134 65
191 230 122 356 -71 130 -211 175 -343 109z m74 -54 c51 -50 17 -135 -53 -135
-76 0 -99 121 -29 150 37 15 57 11 82 -15z"/>
<path d="M6488 6220 c-100 -30 -169 -142 -153 -249 9 -57 24 -87 67 -128 41
-40 76 -53 136 -53 115 1 222 107 222 220 0 45 -29 113 -63 149 -57 60 -136
83 -209 61z m24 -67 c28 -25 24 -77 -8 -102 -15 -12 -35 -21 -45 -21 -23 0
-59 46 -59 76 0 53 72 83 112 47z"/>
<path d="M6477 5646 c-20 -8 -43 -19 -51 -25 -11 -9 -23 -7 -52 9 -102 54
-241 -7 -232 -103 4 -43 39 -49 77 -13 l27 26 39 -20 c25 -13 55 -41 78 -76
33 -46 43 -55 65 -52 20 2 32 13 47 45 42 87 105 120 137 71 21 -31 68 -18 68
18 0 85 -112 152 -203 120z"/>
</g>
</svg>
